<svg xmlns="http://www.w3.org/2000/svg" width="165.899" height="60.4" viewBox="0 0 165.899 60.4">
  <g id="Logo" transform="translate(-139 -24)">
    <g id="Logo_Black" data-name="Logo Black" transform="translate(-258.601 -290.8)">
      <rect id="Eage_Filling_Background" width="9.3" height="10.9" transform="matrix(0.936, 0.352, -0.352, 0.936, 428.15, 332.991)" fill="#fff"/>
      <rect id="Eagle_Filling_Background_2" width="1.2" height="2.2" transform="translate(435.6 336.4)" fill="#fff"/>
      <rect id="Eagle_Filling_Background_3" width="0.5" height="0.4" transform="translate(435.7 338.5)" fill="#fff"/>
      <rect id="Rechteck_4" data-name="Rechteck 4" width="1" height="1.4" transform="matrix(0.739, -0.673, 0.673, 0.739, 445.437, 351.573)"/>
      <g id="Gruppe_3" data-name="Gruppe 3">
        <g id="Gruppe_2" data-name="Gruppe 2">
          <path id="Pfad_15" data-name="Pfad 15" d="M435,340.5c.2-.1.4,0,.6-.2.1-.1.3-.1.5.1.4.6.9.9,1.3,1.5.2.3.5.3.7.6.6.7,1.2,1.3,1.7,1.9l.9.9a9.955,9.955,0,0,1,1.4,1.5c.5.7,1.2,1.2,1.8,1.9l1.2,1.2c1.4,1,2.3,2.5,3.6,3.7a8.491,8.491,0,0,0,3.2,2.1,2.934,2.934,0,0,1-1.6-.4c-.1.1-.1.2,0,.2a14.209,14.209,0,0,0,2.5,2.4,2.724,2.724,0,0,0,2.3.6c.4-.1.2.2.2.4,0,.1-.6.5.1.4,0,.3.4.3.4.5h0a1.465,1.465,0,0,1-1.1-.2,3.177,3.177,0,0,0-.9-.3c-.1,0-.3-.1-.3.1-.1.1.1.2.1.3.1.2.4.3.5.5-.2.1-.4-.1-.6-.1-.4-.3-.9-.5-1.3-.8a.521.521,0,0,0-.8.1.76.76,0,0,0,0,1c.2.2.3.4.5.5a5.937,5.937,0,0,1-.8-.4,21.159,21.159,0,0,1-2.1-1.1.487.487,0,0,0-.8.2,1.92,1.92,0,0,0-.1,1.8c0,.1.2.2,0,.3-.1.1-.2,0-.3,0a7.727,7.727,0,0,1-2.9-2.2,2.843,2.843,0,0,1-.4-1.2c0-.2-.1-.4-.4-.3h-.2c-.4.1-1-.3-1.3-.1-.3.3-.7.5-1,.8a1.383,1.383,0,0,1-1.6.3c-.3-.2-.7-.1-1.1-.3-.2-.2-.5-.3-.5-.6s-.2-.3-.5-.3a2.511,2.511,0,0,1-2.6-.7.85.85,0,0,0-.5-.3,2.609,2.609,0,0,1-1.6-1.1,1.135,1.135,0,0,1-.3-.8c-.1.5-.6.5-1,.6a1.1,1.1,0,0,1-1.2-.3,3.394,3.394,0,0,1-.6-.6.67.67,0,0,0-.8-.3,1.765,1.765,0,0,1-2.1-.8c-.1-.1-.1-.2-.3-.2a2.851,2.851,0,0,1-1.4-.8.908.908,0,0,0-.7-.3c-.7,0-1.2-.2-1.4-.9a.55.55,0,0,0-.5-.3,1.456,1.456,0,0,1-.9-.6.6.6,0,0,0-.6-.3c-.7-.1-.9-.3-1-1a.2.2,0,0,0-.2-.2,1.673,1.673,0,0,1-1.1-.9c-.1-.2-.2-.2-.4-.2a1.613,1.613,0,0,1-.9-.3c-.3-.3-.3-.5-.1-.9-.5-.3-1.2-.3-1.2-1.2a.858.858,0,0,0-.8.7,12.48,12.48,0,0,0-.8,1.2c-.1.2-.3,0-.4.1h0a1.016,1.016,0,0,1-.5,1c-.1.1-.2.3-.4.2-.1,0-.2,0-.2.1-.1.4-.3.3-.6.3-.2-.1-.4.3-.7.2a2.622,2.622,0,0,1-.9-.5c-.2-.2-.1-.4,0-.6a1.2,1.2,0,0,0,.2-.8c0-.4-.2-.4-.6-.5-.5-.1-1,0-1.5-.1-.2,0-.5-.1-.3-.5.1-.2,0-.4,0-.7a1.755,1.755,0,0,1,.4.5c0-.2-.1-.4.1-.6.1-.1.3-.1.2-.3s-.3-.1-.4,0c-.1-.2.7-.5-.1-.6.2-.2.5-.2.6-.5-.1-.1-.2,0-.4-.1.3-.1.6-.6.9-.1,0-.1.2-.4-.2-.3a1.421,1.421,0,0,1-.6-.2c.9.1,1.2-.6,1.7-1.1-.3,0-.5.1-.8-.1-.2-.2-.3-.3-.1-.5a2.66,2.66,0,0,1,1.1-1c.2-.1.4-.1.3-.4-.1-.2.2-.3.5-.4.5-.2.9-.3,1.1-.9.1-.3,0-.4-.3-.5a5.9,5.9,0,0,0-1.4.2,3.812,3.812,0,0,1-1.5.1,1.188,1.188,0,0,1-1-.8.55.55,0,0,0-.5-.3,1.4,1.4,0,0,1-.9-.3c-.3-.3-.4-.5,0-.7a18.341,18.341,0,0,1,3-1.8,3.881,3.881,0,0,0,1.1-.6,4.486,4.486,0,0,1,1.9-.5c.2-.1.6,0,.6-.2,0-.1-.4-.1-.6-.2a1.672,1.672,0,0,0-1.2.1,2.016,2.016,0,0,1-1.1.3,3.287,3.287,0,0,0-1.7.4,1.445,1.445,0,0,1-.7.2,5.782,5.782,0,0,0-1.4.5,14.26,14.26,0,0,1-2.7.9,1.011,1.011,0,0,1-1.2-.5c-.1-.2-.2-.4-.5-.4-.5,0-.7-.2-.6-.7,0-.2-.1-.2-.2-.3-.1,0-.3-.1-.4-.1-.4-.1-.5-.4-.3-.8.1-.3,0-.3-.2-.4-.2,0-.4-.1-.7-.1-.4-.1-.5-.3-.2-.6.1-.1.3-.2.4-.3.2-.2.1-.3-.1-.4a3.749,3.749,0,0,0-1.1-.1c-.1,0-.3,0-.3-.2s.1-.2.2-.3.2-.1.2-.2a.215.215,0,0,0-.2-.2.367.367,0,0,0-.3-.1c-.1,0-.3,0-.3-.2s.2-.2.3-.3c.2-.1.6-.1.6-.3,0-.3-.4-.3-.6-.4s-.4-.1-.6-.2a.215.215,0,0,1-.2-.2c0-.2.1-.1.2-.2a5.45,5.45,0,0,1,2.2-.1c.1,0,.3.2.4,0s-.1-.3-.3-.4a19.986,19.986,0,0,0-2.1-1c-.5-.1-.3-.4-.3-.7s.2-.3.4-.4a1.7,1.7,0,0,0,.7-.1c.1,0,.3,0,.3-.2,0-.1-.1-.2-.2-.3-.3-.2-.4-.3.1-.4.2,0,.2-.2.2-.4,0-.3.1-.5.4-.5a.265.265,0,0,0,.3-.3c0-.3.3-.3.5-.3.8.2,1.5.6,2.2.7a4.331,4.331,0,0,0,.5.1,1.476,1.476,0,0,0-.8-1.5,18.338,18.338,0,0,1-3.6-3.2.85.85,0,0,1-.3-.5c.2,0,.2.1.3.2a24.733,24.733,0,0,0,6.5,4.6c.3.1.7.4.8.2.2-.2,0-.6-.2-.9a2.7,2.7,0,0,0-.8-.7,21.265,21.265,0,0,1-3-3,2.725,2.725,0,0,1-.6-1.2c0-.1-.1-.2,0-.2.1-.1.1,0,.2.1a2.651,2.651,0,0,1,.5.6,17.382,17.382,0,0,0,5.2,4.9c.2.1.3.2.5.3.1,0,.2.1.3.1a2.609,2.609,0,0,0-.7-1.7,10.1,10.1,0,0,1-1.3-1.6c-.1-.1-.1-.2-.2-.3-.1-.2-.2-.5.1-.6s.3.2.4.4a22.983,22.983,0,0,0,3.5,4.1,2.181,2.181,0,0,0,.5.4c.4-.7.4-.9-.2-1.5a6.345,6.345,0,0,1-1.2-2.1,11.466,11.466,0,0,1-1.1-4.5,5.019,5.019,0,0,1,.2-1.2c.1-.1.1-.3.3-.3s.2.2.3.3c.3,1.2.7,2.5,1,3.7a15.182,15.182,0,0,0,2.5,5.3c.4.5.7,1,1.4,1-.8-1.2-.8-2.6-1.1-3.9a12.42,12.42,0,0,1,0-4.3,3.506,3.506,0,0,1,.6-1.4.52.52,0,0,1,.4-.2c.2.1.1.2.2.3.1.9.1,1.8.2,2.7a27.446,27.446,0,0,0,.9,6.4c.2.5.3,1,.8,1.3a5.008,5.008,0,0,1,.8.7,3.128,3.128,0,0,0-.5-1c-.2-.3-.4-.6.1-.9.2-.1.1-.2.1-.4,0-.1.1-.3.2-.3.2,0,.2.1.2.3a4.868,4.868,0,0,1,.1,1.2v.8a1.426,1.426,0,0,0,.6,1.2,5.076,5.076,0,0,0,1.8.9,4.375,4.375,0,0,1,1.7.8,9.609,9.609,0,0,0,3.3,1.8c.2,0,.3.2.4.3.4.5,1,.7,1.4,1.2a6.11,6.11,0,0,0,1.4.7c.3.1.5.3.8.4.1.1.2.2.2.3,0,.3-.1.6.2.9l-.3.3c0,.2-.3.3-.2.5s.3.1.5.1h.2a1.2,1.2,0,0,1-1,.7c-.1,0-.5-.1-.2.2a.1.1,0,0,1-.1.1,1.828,1.828,0,0,1-1.6.3c.3.5.3.7-.2.8-.2.1-.4.1-.4.4s-.4.4-.5.6c-.2.2-.5.3-.5.6,0,.1-.3,0-.1.2.1.1.3.4.5.2s.3,0,.4.1c0,.1.1.2.2.3.1,0,.3,0,.2.2,0,.1-.1.2-.3.2-.1,0-.3-.1-.4,0,.1.1-.1.4.3.4v.3c-.2-.3-.3,0-.5.1a2.2,2.2,0,0,0,.8.1.52.52,0,0,0-.4-.2c.1-.1.2-.1.3-.2.2-.1.4-.1.4.2s0,.5.4.4c.2,0,.3,0,.4.2s-.1.3-.2.3a.878.878,0,0,1-.7.1c-.2,0-.3,0-.3.2-.2.4-.2.5.3.5h.5c-.1.1-.3,0-.4.1a8.754,8.754,0,0,0,6.2-2c1.1.4,1.6-.2,2.3-.7Zm-24.5,4.8h0a1.756,1.756,0,0,0-.5.4c-.1.1-.2.1-.1.3s.2,0,.3,0,.2-.1.4-.1c.3,0,.3-.2.1-.3.2.1.4,0,.5,0,.3,0,.3-.1.1-.3l-.2-.2c-.1-.1-.2-.2-.3.1,0,.1-.1.1-.2.1h0C410.7,345.1,410.6,345.2,410.5,345.3Zm1.8.4c-.2.1-.5,0-.7.2-.1,0-.1.1-.1.2a.1.1,0,0,0,.1.1c.2-.1.6-.1.7-.5a.367.367,0,0,1,.3-.1v.5c.3.2.5.5.9.5.6-.1,1.3-.1,1.9-.2.2,0,.3-.1.3-.2-.1-.3.1-.5.3-.7.1-.2,0-.4-.2-.4-.4.1-.8,0-1.1.2a5.272,5.272,0,0,1-1.2.3c-.3.1-.7-.1-1,.1a.844.844,0,0,1-.2-.7.1.1,0,0,0-.1-.1c-.1,0-.1.1-.1.2C412.2,345.3,412.1,345.5,412.3,345.7Zm2.3-2.7c-.2-.2-.6,0-.6-.4,0-.2-.3-.1-.3,0s0,.2-.1.1c-.3-.2-.4.1-.5.3a3.916,3.916,0,0,1-.8,1c-.1.1,0,.3,0,.4.1.1.1,0,.2,0,.4-.2.6-.1.7.3C413.8,344.2,414,343.4,414.6,343Zm4.2-14.5a1.075,1.075,0,0,0,.9.8A8.175,8.175,0,0,1,418.8,328.5Zm27.6,22.8c-.1,0-.1.2-.2.2-.2.1,0,.2,0,.3s.1.2.2.1C446.5,351.7,446.4,351.5,446.4,351.3Z"/>
          <path id="Pfad_16" data-name="Pfad 16" d="M435,340.5h0a1.905,1.905,0,0,0-1,.5,4.874,4.874,0,0,1-1.1.4.446.446,0,0,1-.5,0c-.1-.1-.1-.2,0-.2.1-.2.2-.4.4-.3.5.2.8-.1,1.1-.3.1-.1.5-.2.1-.4-.1-.1,0-.1.1-.2a5.583,5.583,0,0,1,.8-.5.215.215,0,0,0,.2-.2c0-.1-.1-.1-.2-.1-.2,0-.5.1-.4-.1,0-.3.3-.2.5-.1.5,0,1,0,1.3-.4.1-.2.4-.2.6-.4a.367.367,0,0,0-.3-.1c-.2-.1-.6-.1-.1-.4-.1-.4.2-.3.4-.4.2-.2,0-.3-.1-.5.4-.1.8-.4,1.3-.3-.1.2-.3.1-.4.2.4.3,1.3.1,2-.3.1-.1.2-.2.3-.2.2,0,.1-.2,0-.3a3.044,3.044,0,0,1-.8-.8c-.4-.3,0-.6,0-.9,0-.2.4-.1.6-.1.3.1.6.1.9.2a1.149,1.149,0,0,1,.9.6c.1.1.2.4-.2.4-.1,0-.2.1-.4.1.3.2.7,0,1,.1-.2.6-.2.6-.9.8-.6.2-1,.7-1.5.9-.8.4-1.5.8-2.3,1.2a3.115,3.115,0,0,0-1.6,1.4A1.542,1.542,0,0,1,435,340.5Z"/>
          <path id="Pfad_17" data-name="Pfad 17" d="M455.9,360c.4.1,0-.4.2-.3.2,0,.3.2.5.2.8-.1,1.5.3,2.3,0l1.8-.6c.5-.2,1-.3,1.5-.5a10.413,10.413,0,0,1,1.6-.6.33.33,0,0,1,.5,0c-.2.2-.4.5-.6.6-.6.4-1,1-1.7,1.4-.6.3-1,.8-1.7.9a1.4,1.4,0,0,1-1.4-.2.592.592,0,0,0-.7-.1h-1c-.4,0-.8,0-1-.4-.1-.4-.2-.4-.3-.4Z"/>
          <path id="Pfad_18" data-name="Pfad 18" d="M456.5,361.5a7.2,7.2,0,0,1,3.3.6.215.215,0,0,1,.2.2c0,.1-.1.1-.2.1a4.334,4.334,0,0,1-1.9-.4,1.486,1.486,0,0,0-.9-.2A.462.462,0,0,1,456.5,361.5Z"/>
          <path id="Pfad_19" data-name="Pfad 19" d="M410.8,345.1c.3.1.1.2,0,.3h0c-.1-.1,0-.2,0-.3Z"/>
          <path id="Pfad_20" data-name="Pfad 20" d="M410.7,345.5c-.1-.1-.2,0-.2-.2h.2Z"/>
        </g>
      </g>
      <path id="Head_Top" d="M438.7,333.4c-1.3-1-2.7-.5-8.8-.5,0,0-3.4.2-3.4.3a5.19,5.19,0,0,1,2.5.3c.1,0,.3.2.6.4.4.4.8,1,.7,1.2-.2.2-1.4-.2-1.4-.5s1.6-.6,2.4.1c.3.2.4.5.6.5.5,0,.5-1,1.2-1.1a3.869,3.869,0,0,1,.9.1c.5.1.5.2.9.2a4.651,4.651,0,0,0,1.2,0c.4-.1.3-.1.7-.2a1.379,1.379,0,0,1,.9,0,7.768,7.768,0,0,1,.7.4c.5.3.5.4.5.5.1.3-.1.5,0,.6a.651.651,0,0,0,.9-.2C440.1,334.9,439.3,333.9,438.7,333.4Z"/>
      <rect id="Rechteck_5" data-name="Rechteck 5" width="0.9" height="1.1" transform="matrix(0.979, -0.206, 0.206, 0.979, 434.758, 339.583)"/>
      <rect id="Rechteck_6" data-name="Rechteck 6" width="2.1" height="0.8" transform="translate(426.7 333.1)"/>
      <path id="Pfad_21" data-name="Pfad 21" d="M436.7,336.8c-.3-.3-.4-.6-.9-.9-.4-.2-1-.2-1.2.1-.2.2,0,.5-.2.6s-.5-.2-.6-.5c0-.3.4-.5.4-.6-.1-.1-.5,0-.7.1a2.507,2.507,0,0,0-.7.4c-.2.2-.1.4-.2.4a.677.677,0,0,1-.3-.7c.1-.2.3-.2.3-.3a2.5,2.5,0,0,0-.8.4c-.4.3-.5.6-.6.6s.1-.4-.2-.8c-.1-.2-.4-.4-.4-.3-.1,0,0,.3-.1.3s-.3-.4-.5-.4c-.1,0-.2.2-.2.3,0,.2.4.2.4.3s-.5,0-.5.1.4.3.4.4-.6.1-1-.1c-.9-.5-1.3-2.2-.7-2.8.1-.1.4-.3,1.8-.2a13.315,13.315,0,0,1,3.9.6,5.616,5.616,0,0,0,1.5.4c.6-.1.8-.5,1.6-.5.5,0,.9.1,1.1.1a3.226,3.226,0,0,1,1.3.8c.1.1.8,1,.6,1.7C439.8,337.3,437.6,337.6,436.7,336.8Z"/>
      <g id="Eye">
        <path id="Pfad_22" data-name="Pfad 22" d="M437.5,333.9c-.2,0-.2.3-.3.4-.2.5,1,.4,1.2.2h0c.1-.2-.4-.4-.4-.5a1.214,1.214,0,0,0-.5-.1Z" fill="#fff"/>
        <circle id="Ellipse_1" data-name="Ellipse 1" cx="0.3" cy="0.3" r="0.3" transform="translate(437.5 334)" fill="#171717"/>
        <ellipse id="Ellipse_2" data-name="Ellipse 2" cx="0.1" rx="0.1" transform="translate(437.81 334.477) rotate(-69.285)" fill="#fff"/>
      </g>
      <g id="Gruppe_4" data-name="Gruppe 4">
        <path id="Pfad_23" data-name="Pfad 23" d="M422.1,344.4l2.7,2.7-2.7,2.7-2.7-2.7Zm-1.9,30.3v-20h4v20Z"/>
        <path id="Pfad_24" data-name="Pfad 24" d="M434.2,364.6v10.1h-2.7V356.2l3,1.8,20,9.9h0c0-2.1-.1-4-.1-5.7V344.8h2.7v30.1h-1.8l-21-10.9v8.6"/>
        <path id="Pfad_25" data-name="Pfad 25" d="M472.8,375.1c-3.1,0-5.6-.9-7.2-2.7a11.3,11.3,0,0,1-2.5-7.7,15.1,15.1,0,0,1,.6-4.4,8.772,8.772,0,0,1,1.8-3.3,8.125,8.125,0,0,1,3-2.1,12.95,12.95,0,0,1,8.4,0,7.912,7.912,0,0,1,3,2,8.772,8.772,0,0,1,1.8,3.3,16.433,16.433,0,0,1,0,8.8,8.772,8.772,0,0,1-1.8,3.3,8.125,8.125,0,0,1-3,2.1A10.368,10.368,0,0,1,472.8,375.1Zm-5.5-10.4a20.906,20.906,0,0,0,.3,3.8,5.244,5.244,0,0,0,1,2.5,4.861,4.861,0,0,0,1.7,1.5,6.175,6.175,0,0,0,2.5.5,12.481,12.481,0,0,0,2.1-.2,3.824,3.824,0,0,0,1.8-.9,4.331,4.331,0,0,0,1.4-2.7,19.411,19.411,0,0,0,.4-4.4c0-2.9-.4-4.9-1.3-6.3a4.725,4.725,0,0,0-4.1-2,12.481,12.481,0,0,0-2.1.2,3.805,3.805,0,0,0-1.7.8,2.421,2.421,0,0,0-.8,1.1,6.866,6.866,0,0,0-.5,1.7c-.1.7-.2,1.3-.3,2.1A18.462,18.462,0,0,0,467.3,364.7Z"/>
        <path id="Pfad_26" data-name="Pfad 26" d="M501.3,374.7V360.8a6.6,6.6,0,0,0-.1-1.4,3.374,3.374,0,0,0-.4-1.2,1.789,1.789,0,0,0-1-.9,4.193,4.193,0,0,0-1.6-.4,7.844,7.844,0,0,0-1.4.2c-.5.1-1,.3-1.5.4a9.384,9.384,0,0,0-1.5.6c-.5.2-.9.5-1.3.7v15.9h-4v-20h3.3l.6,2.3c.4-.3.9-.5,1.5-.9a15.107,15.107,0,0,1,1.8-.9,11.765,11.765,0,0,1,2-.7,7.612,7.612,0,0,1,2.1-.3,5.571,5.571,0,0,1,3,.8,4.345,4.345,0,0,1,1.9,2.3l.5-.3c.4-.3.9-.5,1.5-.9a15.107,15.107,0,0,1,1.8-.9,11.765,11.765,0,0,1,2-.7,7.612,7.612,0,0,1,2.1-.3,5.382,5.382,0,0,1,2.2.4,4.181,4.181,0,0,1,1.7,1.1,5.442,5.442,0,0,1,1.1,1.8,9.474,9.474,0,0,1,.4,2.6v14.6h-4V360.8a6.6,6.6,0,0,0-.1-1.4,3.373,3.373,0,0,0-.4-1.2,1.789,1.789,0,0,0-1-.9,4.193,4.193,0,0,0-1.6-.4,10.4,10.4,0,0,0-1.5.2,14.241,14.241,0,0,0-1.6.5l-1.5.6c-.5.2-.9.5-1.3.7a5.282,5.282,0,0,1,.1,1.3v14.6h-3.8Z"/>
        <path id="Pfad_27" data-name="Pfad 27" d="M540.6,372.7a6.8,6.8,0,0,0,2.1-.4v1.3a20.915,20.915,0,0,1-2.1,1,6.352,6.352,0,0,1-2.3.5,3.73,3.73,0,0,1-1.2-.2,1.555,1.555,0,0,1-.8-.6,3.507,3.507,0,0,1-.5-.8c-.1-.3-.3-.6-.4-.9-.5.3-1,.7-1.5,1a10.929,10.929,0,0,1-1.5.8c-.5.2-1.1.4-1.7.6a6.165,6.165,0,0,1-2,.2,5.638,5.638,0,0,1-3.9-1.4,5.251,5.251,0,0,1-1.4-4.1,7.1,7.1,0,0,1,.4-2.6,3.561,3.561,0,0,1,1.4-1.8,5.907,5.907,0,0,1,2.4-1.1,18.157,18.157,0,0,1,3.7-.4l3.6-.1V360a3.286,3.286,0,0,0-.7-2.4,3.037,3.037,0,0,0-2.3-.8,10.44,10.44,0,0,0-2.8.4,17.26,17.26,0,0,0-3.2,1.1l-.7-1.9c.6-.3,1.3-.5,2-.8a17.24,17.24,0,0,1,2.1-.7,17.413,17.413,0,0,1,2.2-.5,16.351,16.351,0,0,1,2.2-.2,7.8,7.8,0,0,1,2.2.3,3.54,3.54,0,0,1,1.6.9,4.043,4.043,0,0,1,1,1.7,9.277,9.277,0,0,1,.3,2.6v9.6C539,371.5,539.5,372.7,540.6,372.7Zm-5.5-1.5c0-.1,0-.7-.1-1.7s-.1-2.5-.1-4.4a19.856,19.856,0,0,0-4.8.4c-1.1.3-1.8.5-2,.8a2.811,2.811,0,0,0-.5,1.1,7.774,7.774,0,0,0-.2,1.6,4.764,4.764,0,0,0,.6,2.6,2.082,2.082,0,0,0,1.9.9,10.32,10.32,0,0,0,2.6-.3A9.282,9.282,0,0,0,535.1,371.2Z"/>
        <path id="Pfad_28" data-name="Pfad 28" d="M559.6,354.6V341.9l3.9-1v33.9h-2.6l-1.1-1.9h-.1a5.67,5.67,0,0,1-1.3.8c-.5.2-.9.5-1.4.7a8.06,8.06,0,0,1-3.2.7,11.852,11.852,0,0,1-3.2-.5,5.93,5.93,0,0,1-2.7-1.7,8.594,8.594,0,0,1-1.9-3.1,12.721,12.721,0,0,1-.7-4.6,13.085,13.085,0,0,1,.7-4.6,11.009,11.009,0,0,1,2-3.5,7.99,7.99,0,0,1,3.2-2.2,11.226,11.226,0,0,1,4.2-.7,16.232,16.232,0,0,1,2.1.1A17.665,17.665,0,0,0,559.6,354.6ZM549.5,365a11.327,11.327,0,0,0,.4,3.4,7.031,7.031,0,0,0,1.1,2.3,4.628,4.628,0,0,0,1.8,1.3,5.558,5.558,0,0,0,2.3.4,17.914,17.914,0,0,0,2.4-.2,10.516,10.516,0,0,0,2.1-.6V356.8a11.018,11.018,0,0,0-1.8-.2c-.6,0-1.2-.1-1.9-.1a21.113,21.113,0,0,0-2.6.2,3.02,3.02,0,0,0-1.8.8,9.682,9.682,0,0,0-.7.9,5.211,5.211,0,0,0-.6,1.5,11.951,11.951,0,0,0-.5,2.2A23.289,23.289,0,0,0,549.5,365Z"/>
      </g>
    </g>
    <g id="Logo_White" data-name="Logo White" transform="translate(-259.6 -290.8)">
      <rect id="Eage_Filling_Background-2" data-name="Eage_Filling_Background" width="10.9" height="9.3" transform="matrix(0.352, -0.936, 0.936, 0.352, 424.321, 343.233)" fill="#5e5a5a"/>
      <rect id="Eagle_Filling_Background_2-2" data-name="Eagle_Filling_Background_2" width="1.2" height="2.2" transform="translate(435.6 336.4)" fill="#5e5a5a"/>
      <rect id="Eagle_Filling_Background_3-2" data-name="Eagle_Filling_Background_3" width="0.5" height="0.4" transform="translate(435.7 338.5)" fill="#5e5a5a"/>
      <rect id="Rechteck_7" data-name="Rechteck 7" width="1" height="1.4" transform="matrix(0.739, -0.673, 0.673, 0.739, 445.497, 351.591)" fill="#fff"/>
      <g id="Gruppe_6" data-name="Gruppe 6">
        <g id="Gruppe_5" data-name="Gruppe 5">
          <path id="Pfad_29" data-name="Pfad 29" d="M435,340.5c.2-.1.4,0,.6-.2.1-.1.3-.1.5.1.4.6.9.9,1.3,1.5.2.3.5.3.7.6.6.7,1.2,1.3,1.7,1.9l.9.9a9.955,9.955,0,0,1,1.4,1.5c.5.7,1.2,1.2,1.8,1.9l1.2,1.2c1.4,1,2.3,2.5,3.6,3.7a8.491,8.491,0,0,0,3.2,2.1,2.934,2.934,0,0,1-1.6-.4c-.1.1-.1.2,0,.2a14.209,14.209,0,0,0,2.5,2.4,2.724,2.724,0,0,0,2.3.6c.4-.1.2.2.2.4,0,.1-.6.5.1.4,0,.3.4.3.4.5h0a1.465,1.465,0,0,1-1.1-.2,3.177,3.177,0,0,0-.9-.3c-.1,0-.3-.1-.3.1-.1.1.1.2.1.3.1.2.4.3.5.5-.2.1-.4-.1-.6-.1-.4-.3-.9-.5-1.3-.8a.521.521,0,0,0-.8.1.76.76,0,0,0,0,1c.2.2.3.4.5.5a5.937,5.937,0,0,1-.8-.4,21.159,21.159,0,0,1-2.1-1.1.487.487,0,0,0-.8.2,1.92,1.92,0,0,0-.1,1.8c0,.1.2.2,0,.3-.1.1-.2,0-.3,0a7.727,7.727,0,0,1-2.9-2.2,2.843,2.843,0,0,1-.4-1.2c0-.2-.1-.4-.4-.3h-.2c-.4.1-1-.3-1.3-.1-.3.3-.7.5-1,.8a1.383,1.383,0,0,1-1.6.3c-.3-.2-.7-.1-1.1-.3-.2-.2-.5-.3-.5-.6s-.2-.3-.5-.3a2.511,2.511,0,0,1-2.6-.7.85.85,0,0,0-.5-.3,2.609,2.609,0,0,1-1.6-1.1,1.135,1.135,0,0,1-.3-.8c-.1.5-.6.5-1,.6a1.1,1.1,0,0,1-1.2-.3,3.394,3.394,0,0,1-.6-.6.67.67,0,0,0-.8-.3,1.765,1.765,0,0,1-2.1-.8c-.1-.1-.1-.2-.3-.2a2.851,2.851,0,0,1-1.4-.8.908.908,0,0,0-.7-.3c-.7,0-1.2-.2-1.4-.9a.55.55,0,0,0-.5-.3,1.456,1.456,0,0,1-.9-.6.6.6,0,0,0-.6-.3c-.7-.1-.9-.3-1-1a.2.2,0,0,0-.2-.2,1.673,1.673,0,0,1-1.1-.9c-.1-.2-.2-.2-.4-.2a1.613,1.613,0,0,1-.9-.3c-.3-.3-.3-.5-.1-.9-.5-.3-1.2-.3-1.2-1.2a.858.858,0,0,0-.8.7,12.48,12.48,0,0,0-.8,1.2c-.1.2-.3,0-.4.1h0a1.016,1.016,0,0,1-.5,1c-.1.1-.2.3-.4.2-.1,0-.2,0-.2.1-.1.4-.3.3-.6.3-.2-.1-.4.3-.7.2a2.622,2.622,0,0,1-.9-.5c-.2-.2-.1-.4,0-.6a1.2,1.2,0,0,0,.2-.8c0-.4-.2-.4-.6-.5-.5-.1-1,0-1.5-.1-.2,0-.5-.1-.3-.5.1-.2,0-.4,0-.7a1.755,1.755,0,0,1,.4.5c0-.2-.1-.4.1-.6.1-.1.3-.1.2-.3s-.3-.1-.4,0c-.1-.2.7-.5-.1-.6.2-.2.5-.2.6-.5-.1-.1-.2,0-.4-.1.3-.1.6-.6.9-.1,0-.1.2-.4-.2-.3a1.421,1.421,0,0,1-.6-.2c.9.1,1.2-.6,1.7-1.1-.3,0-.5.1-.8-.1-.2-.2-.3-.3-.1-.5a2.66,2.66,0,0,1,1.1-1c.2-.1.4-.1.3-.4-.1-.2.2-.3.5-.4.5-.2.9-.3,1.1-.9.1-.3,0-.4-.3-.5a5.9,5.9,0,0,0-1.4.2,3.812,3.812,0,0,1-1.5.1,1.188,1.188,0,0,1-1-.8.55.55,0,0,0-.5-.3,1.4,1.4,0,0,1-.9-.3c-.3-.3-.4-.5,0-.7a18.341,18.341,0,0,1,3-1.8,3.881,3.881,0,0,0,1.1-.6,4.486,4.486,0,0,1,1.9-.5c.2-.1.6,0,.6-.2,0-.1-.4-.1-.6-.2a1.672,1.672,0,0,0-1.2.1,2.016,2.016,0,0,1-1.1.3,3.287,3.287,0,0,0-1.7.4,1.445,1.445,0,0,1-.7.2,5.782,5.782,0,0,0-1.4.5,14.26,14.26,0,0,1-2.7.9,1.011,1.011,0,0,1-1.2-.5c-.1-.2-.2-.4-.5-.4-.5,0-.7-.2-.6-.7,0-.2-.1-.2-.2-.3-.1,0-.3-.1-.4-.1-.4-.1-.5-.4-.3-.8.1-.3,0-.3-.2-.4-.2,0-.4-.1-.7-.1-.4-.1-.5-.3-.2-.6.1-.1.3-.2.4-.3.2-.2.1-.3-.1-.4a3.749,3.749,0,0,0-1.1-.1c-.1,0-.3,0-.3-.2s.1-.2.2-.3.2-.1.2-.2a.215.215,0,0,0-.2-.2.367.367,0,0,0-.3-.1c-.1,0-.3,0-.3-.2s.2-.2.3-.3c.2-.1.6-.1.6-.3,0-.3-.4-.3-.6-.4s-.4-.1-.6-.2a.215.215,0,0,1-.2-.2c0-.2.1-.1.2-.2a5.45,5.45,0,0,1,2.2-.1c.1,0,.3.2.4,0s-.1-.3-.3-.4a19.986,19.986,0,0,0-2.1-1c-.5-.1-.3-.4-.3-.7s.2-.3.4-.4a1.7,1.7,0,0,0,.7-.1c.1,0,.3,0,.3-.2,0-.1-.1-.2-.2-.3-.3-.2-.4-.3.1-.4.2,0,.2-.2.2-.4,0-.3.1-.5.4-.5a.265.265,0,0,0,.3-.3c0-.3.3-.3.5-.3.8.2,1.5.6,2.2.7a4.331,4.331,0,0,0,.5.1,1.476,1.476,0,0,0-.8-1.5,18.338,18.338,0,0,1-3.6-3.2.85.85,0,0,1-.3-.5c.2,0,.2.1.3.2a24.733,24.733,0,0,0,6.5,4.6c.3.1.7.4.8.2.2-.2,0-.6-.2-.9a2.7,2.7,0,0,0-.8-.7,21.265,21.265,0,0,1-3-3,2.725,2.725,0,0,1-.6-1.2c0-.1-.1-.2,0-.2.1-.1.1,0,.2.1a2.651,2.651,0,0,1,.5.6,17.382,17.382,0,0,0,5.2,4.9c.2.1.3.2.5.3.1,0,.2.1.3.1a2.609,2.609,0,0,0-.7-1.7,10.1,10.1,0,0,1-1.3-1.6c-.1-.1-.1-.2-.2-.3-.1-.2-.2-.5.1-.6s.3.2.4.4a22.983,22.983,0,0,0,3.5,4.1,2.181,2.181,0,0,0,.5.4c.4-.7.4-.9-.2-1.5a6.345,6.345,0,0,1-1.2-2.1,11.466,11.466,0,0,1-1.1-4.5,5.019,5.019,0,0,1,.2-1.2c.1-.1.1-.3.3-.3s.2.2.3.3c.3,1.2.7,2.5,1,3.7a15.182,15.182,0,0,0,2.5,5.3c.4.5.7,1,1.4,1-.8-1.2-.8-2.6-1.1-3.9a12.42,12.42,0,0,1,0-4.3,3.506,3.506,0,0,1,.6-1.4.52.52,0,0,1,.4-.2c.2.1.1.2.2.3.1.9.1,1.8.2,2.7a27.446,27.446,0,0,0,.9,6.4c.2.5.3,1,.8,1.3a5.008,5.008,0,0,1,.8.7,3.128,3.128,0,0,0-.5-1c-.2-.3-.4-.6.1-.9.2-.1.1-.2.1-.4,0-.1.1-.3.2-.3.2,0,.2.1.2.3a4.868,4.868,0,0,1,.1,1.2v.8a1.426,1.426,0,0,0,.6,1.2,5.076,5.076,0,0,0,1.8.9,4.375,4.375,0,0,1,1.7.8,9.609,9.609,0,0,0,3.3,1.8c.2,0,.3.2.4.3.4.5,1,.7,1.4,1.2a6.11,6.11,0,0,0,1.4.7c.3.1.5.3.8.4.1.1.2.2.2.3,0,.3-.1.6.2.9l-.3.3c0,.2-.3.3-.2.5s.3.1.5.1h.2a1.2,1.2,0,0,1-1,.7c-.1,0-.5-.1-.2.2a.1.1,0,0,1-.1.1,1.828,1.828,0,0,1-1.6.3c.3.5.3.7-.2.8-.2.1-.4.1-.4.4s-.4.4-.5.6c-.2.2-.5.3-.5.6,0,.1-.3,0-.1.2.1.1.3.4.5.2s.3,0,.4.1c0,.1.1.2.2.3.1,0,.3,0,.2.2,0,.1-.1.2-.3.2-.1,0-.3-.1-.4,0,.1.1-.1.4.3.4v.3c-.2-.3-.3,0-.5.1a2.2,2.2,0,0,0,.8.1.52.52,0,0,0-.4-.2c.1-.1.2-.1.3-.2.2-.1.4-.1.4.2s0,.5.4.4c.2,0,.3,0,.4.2s-.1.3-.2.3a.878.878,0,0,1-.7.1c-.2,0-.3,0-.3.2-.2.4-.2.5.3.5h.5c-.1.1-.3,0-.4.1a8.754,8.754,0,0,0,6.2-2c1.1.4,1.6-.2,2.3-.7Zm-24.5,4.8h0a1.756,1.756,0,0,0-.5.4c-.1.1-.2.1-.1.3s.2,0,.3,0,.2-.1.4-.1c.3,0,.3-.2.1-.3.2.1.4,0,.5,0,.3,0,.3-.1.1-.3l-.2-.2c-.1-.1-.2-.2-.3.1,0,.1-.1.1-.3.1Zm1.8.4c-.2.1-.5,0-.7.2-.1,0-.1.1-.1.2a.1.1,0,0,0,.1.1c.2-.1.6-.1.7-.5a.367.367,0,0,1,.3-.1v.5c.3.2.5.5.9.5.6-.1,1.3-.1,1.9-.2.2,0,.3-.1.3-.2-.1-.3.1-.5.3-.7.1-.2,0-.4-.2-.4-.4.1-.8,0-1.1.2a5.272,5.272,0,0,1-1.2.3c-.3.1-.7-.1-1,.1a.844.844,0,0,1-.2-.7.1.1,0,0,0-.1-.1c-.1,0-.1.1-.1.2C412.2,345.3,412.1,345.5,412.3,345.7Zm2.3-2.7c-.2-.2-.6,0-.6-.4,0-.2-.3-.1-.3,0s0,.2-.1.1c-.3-.2-.4.1-.5.3a3.916,3.916,0,0,1-.8,1c-.1.1,0,.3,0,.4.1.1.1,0,.2,0,.4-.2.6-.1.7.3C413.8,344.2,414,343.4,414.6,343Zm4.2-14.5a1.075,1.075,0,0,0,.9.8A8.175,8.175,0,0,1,418.8,328.5Zm27.6,22.8c-.1,0-.1.2-.2.2-.2.1,0,.2,0,.3s.1.2.2.1C446.5,351.7,446.4,351.5,446.4,351.3Z" fill="#fff"/>
          <path id="Pfad_30" data-name="Pfad 30" d="M435,340.5h0a1.905,1.905,0,0,0-1,.5,4.874,4.874,0,0,1-1.1.4.446.446,0,0,1-.5,0c-.1-.1-.1-.2,0-.2.1-.2.2-.4.4-.3.5.2.8-.1,1.1-.3.1-.1.5-.2.1-.4-.1-.1,0-.1.1-.2a5.583,5.583,0,0,1,.8-.5.215.215,0,0,0,.2-.2c0-.1-.1-.1-.2-.1-.2,0-.5.1-.4-.1,0-.3.3-.2.5-.1.5,0,1,0,1.3-.4.1-.2.4-.2.6-.4a.367.367,0,0,0-.3-.1c-.2-.1-.6-.1-.1-.4-.1-.4.2-.3.4-.4.2-.2,0-.3-.1-.5.4-.1.8-.4,1.3-.3-.1.2-.3.1-.4.2.4.3,1.3.1,2-.3.1-.1.2-.2.3-.2.2,0,.1-.2,0-.3a3.044,3.044,0,0,1-.8-.8c-.4-.3,0-.6,0-.9,0-.2.4-.1.6-.1.3.1.6.1.9.2a1.149,1.149,0,0,1,.9.6c.1.1.2.4-.2.4-.1,0-.2.1-.4.1.3.2.7,0,1,.1-.2.6-.2.6-.9.8-.6.2-1,.7-1.5.9-.8.4-1.5.8-2.3,1.2a3.115,3.115,0,0,0-1.6,1.4A1.542,1.542,0,0,1,435,340.5Z" fill="#fff"/>
          <path id="Pfad_31" data-name="Pfad 31" d="M455.9,360c.4.1,0-.4.2-.3.2,0,.3.2.5.2.8-.1,1.5.3,2.3,0l1.8-.6c.5-.2,1-.3,1.5-.5a10.413,10.413,0,0,1,1.6-.6.33.33,0,0,1,.5,0c-.2.2-.4.5-.6.6-.6.4-1,1-1.7,1.4-.6.3-1,.8-1.7.9a1.4,1.4,0,0,1-1.4-.2.592.592,0,0,0-.7-.1h-1c-.4,0-.8,0-1-.4-.1-.4-.2-.4-.3-.4Z" fill="#fff"/>
          <path id="Pfad_32" data-name="Pfad 32" d="M456.5,361.5a7.2,7.2,0,0,1,3.3.6.215.215,0,0,1,.2.2c0,.1-.1.1-.2.1a4.334,4.334,0,0,1-1.9-.4,1.486,1.486,0,0,0-.9-.2A.462.462,0,0,1,456.5,361.5Z" fill="#fff"/>
          <path id="Pfad_33" data-name="Pfad 33" d="M410.8,345.1c.3.1.1.2,0,.3h0c-.1-.1,0-.2,0-.3Z" fill="#fff"/>
          <path id="Pfad_34" data-name="Pfad 34" d="M410.7,345.5c-.1-.1-.2,0-.2-.2h.2Z" fill="#fff"/>
        </g>
      </g>
      <path id="Head_Top-2" data-name="Head_Top" d="M438.7,333.4c-1.3-1-2.7-.5-8.8-.5,0,0-3.4.2-3.4.3a5.19,5.19,0,0,1,2.5.3c.1,0,.3.2.6.4.4.4.8,1,.7,1.2-.2.2-1.4-.2-1.4-.5s1.6-.6,2.4.1c.3.2.4.5.6.5.5,0,.5-1,1.2-1.1a3.869,3.869,0,0,1,.9.1c.5.1.5.2.9.2a4.651,4.651,0,0,0,1.2,0c.4-.1.3-.1.7-.2a1.379,1.379,0,0,1,.9,0,7.768,7.768,0,0,1,.7.4c.5.3.5.4.5.5.1.3-.1.5,0,.6a.651.651,0,0,0,.9-.2C440.1,334.9,439.3,333.9,438.7,333.4Z" fill="#fff"/>
      <rect id="Rechteck_8" data-name="Rechteck 8" width="0.9" height="1.1" transform="matrix(0.979, -0.206, 0.206, 0.979, 434.775, 339.584)" fill="#fff"/>
      <rect id="Rechteck_9" data-name="Rechteck 9" width="2.1" height="0.8" transform="translate(426.7 333.1)" fill="#fff"/>
      <path id="Pfad_35" data-name="Pfad 35" d="M436.7,336.8c-.3-.3-.4-.6-.9-.9-.4-.2-1-.2-1.2.1-.2.2,0,.5-.2.6s-.5-.2-.6-.5c0-.3.4-.5.4-.6-.1-.1-.5,0-.7.1a2.507,2.507,0,0,0-.7.4c-.2.2-.1.4-.2.4a.677.677,0,0,1-.3-.7c.1-.2.3-.2.3-.3a2.5,2.5,0,0,0-.8.4c-.4.3-.5.6-.6.6s.1-.4-.2-.8c-.1-.2-.4-.4-.4-.3-.1,0,0,.3-.1.3s-.3-.4-.5-.4c-.1,0-.2.2-.2.3,0,.2.4.2.4.3s-.5,0-.5.1.4.3.4.4-.6.1-1-.1c-.9-.5-1.3-2.2-.7-2.8.1-.1.4-.3,1.8-.2a13.315,13.315,0,0,1,3.9.6,5.616,5.616,0,0,0,1.5.4c.6-.1.8-.5,1.6-.5.5,0,.9.1,1.1.1a3.226,3.226,0,0,1,1.3.8c.1.1.8,1,.6,1.7C439.8,337.3,437.6,337.6,436.7,336.8Z" fill="#fff"/>
      <g id="Eye-2" data-name="Eye">
        <path id="Pfad_36" data-name="Pfad 36" d="M437.5,333.9c-.2,0-.2.3-.3.4-.2.5,1,.4,1.2.2h0c.1-.2-.4-.4-.4-.5a1.214,1.214,0,0,0-.5-.1Z" fill="#5e5a5a"/>
        <circle id="Ellipse_3" data-name="Ellipse 3" cx="0.3" cy="0.3" r="0.3" transform="translate(437.5 334)" fill="#e8e8e8"/>
        <path id="Pfad_37" data-name="Pfad 37" d="M437.8,334.4Z"/>
      </g>
      <g id="Gruppe_7" data-name="Gruppe 7">
        <path id="Pfad_38" data-name="Pfad 38" d="M422.1,344.4l2.7,2.7-2.7,2.7-2.7-2.7Zm-1.9,30.3v-20h4v20Z" fill="#fff"/>
        <path id="Pfad_39" data-name="Pfad 39" d="M434.2,364.6v10.1h-2.7V356.2l3,1.8,20,9.9h0c0-2.1-.1-4-.1-5.7V344.8h2.7v30.1h-1.8l-21-10.9v8.6" fill="#fff"/>
        <path id="Pfad_40" data-name="Pfad 40" d="M472.8,375.1c-3.1,0-5.6-.9-7.2-2.7a11.3,11.3,0,0,1-2.5-7.7,15.1,15.1,0,0,1,.6-4.4,8.772,8.772,0,0,1,1.8-3.3,8.125,8.125,0,0,1,3-2.1,12.95,12.95,0,0,1,8.4,0,7.912,7.912,0,0,1,3,2,8.772,8.772,0,0,1,1.8,3.3,16.433,16.433,0,0,1,0,8.8,8.772,8.772,0,0,1-1.8,3.3,8.125,8.125,0,0,1-3,2.1A10.368,10.368,0,0,1,472.8,375.1Zm-5.5-10.4a20.906,20.906,0,0,0,.3,3.8,5.244,5.244,0,0,0,1,2.5,4.861,4.861,0,0,0,1.7,1.5,6.175,6.175,0,0,0,2.5.5,12.481,12.481,0,0,0,2.1-.2,3.824,3.824,0,0,0,1.8-.9,4.331,4.331,0,0,0,1.4-2.7,19.411,19.411,0,0,0,.4-4.4c0-2.9-.4-4.9-1.3-6.3a4.725,4.725,0,0,0-4.1-2,12.481,12.481,0,0,0-2.1.2,3.805,3.805,0,0,0-1.7.8,2.421,2.421,0,0,0-.8,1.1,6.866,6.866,0,0,0-.5,1.7c-.1.7-.2,1.3-.3,2.1A18.462,18.462,0,0,0,467.3,364.7Z" fill="#fff"/>
        <path id="Pfad_41" data-name="Pfad 41" d="M501.3,374.7V360.8a6.6,6.6,0,0,0-.1-1.4,3.374,3.374,0,0,0-.4-1.2,1.789,1.789,0,0,0-1-.9,4.193,4.193,0,0,0-1.6-.4,7.844,7.844,0,0,0-1.4.2c-.5.1-1,.3-1.5.4a9.384,9.384,0,0,0-1.5.6c-.5.2-.9.5-1.3.7v15.9h-4v-20h3.3l.6,2.3c.4-.3.9-.5,1.5-.9a15.107,15.107,0,0,1,1.8-.9,11.765,11.765,0,0,1,2-.7,7.612,7.612,0,0,1,2.1-.3,5.571,5.571,0,0,1,3,.8,4.345,4.345,0,0,1,1.9,2.3l.5-.3c.4-.3.9-.5,1.5-.9a15.107,15.107,0,0,1,1.8-.9,11.765,11.765,0,0,1,2-.7,7.612,7.612,0,0,1,2.1-.3,5.382,5.382,0,0,1,2.2.4,4.181,4.181,0,0,1,1.7,1.1,5.442,5.442,0,0,1,1.1,1.8,9.474,9.474,0,0,1,.4,2.6v14.6h-4V360.8a6.6,6.6,0,0,0-.1-1.4,3.373,3.373,0,0,0-.4-1.2,1.789,1.789,0,0,0-1-.9,4.193,4.193,0,0,0-1.6-.4,10.4,10.4,0,0,0-1.5.2,14.241,14.241,0,0,0-1.6.5l-1.5.6c-.5.2-.9.5-1.3.7a5.282,5.282,0,0,1,.1,1.3v14.6h-3.8v-.1Z" fill="#fff"/>
        <path id="Pfad_42" data-name="Pfad 42" d="M540.6,372.7a6.8,6.8,0,0,0,2.1-.4v1.3a20.915,20.915,0,0,1-2.1,1,6.352,6.352,0,0,1-2.3.5,3.73,3.73,0,0,1-1.2-.2,1.555,1.555,0,0,1-.8-.6,3.507,3.507,0,0,1-.5-.8c-.1-.3-.3-.6-.4-.9-.5.3-1,.7-1.5,1a10.929,10.929,0,0,1-1.5.8c-.5.2-1.1.4-1.7.6a6.165,6.165,0,0,1-2,.2,5.638,5.638,0,0,1-3.9-1.4,5.251,5.251,0,0,1-1.4-4.1,7.1,7.1,0,0,1,.4-2.6,3.561,3.561,0,0,1,1.4-1.8,5.907,5.907,0,0,1,2.4-1.1,18.157,18.157,0,0,1,3.7-.4l3.6-.1V360a3.286,3.286,0,0,0-.7-2.4,3.037,3.037,0,0,0-2.3-.8,10.44,10.44,0,0,0-2.8.4,17.26,17.26,0,0,0-3.2,1.1l-.7-1.9c.6-.3,1.3-.5,2-.8a17.24,17.24,0,0,1,2.1-.7,17.413,17.413,0,0,1,2.2-.5,16.351,16.351,0,0,1,2.2-.2,7.8,7.8,0,0,1,2.2.3,3.54,3.54,0,0,1,1.6.9,4.043,4.043,0,0,1,1,1.7,9.277,9.277,0,0,1,.3,2.6v9.6C539,371.5,539.5,372.7,540.6,372.7Zm-5.5-1.5c0-.1,0-.7-.1-1.7s-.1-2.5-.1-4.4a19.856,19.856,0,0,0-4.8.4c-1.1.3-1.8.5-2,.8a2.811,2.811,0,0,0-.5,1.1,7.774,7.774,0,0,0-.2,1.6,4.764,4.764,0,0,0,.6,2.6,2.082,2.082,0,0,0,1.9.9,10.32,10.32,0,0,0,2.6-.3A9.282,9.282,0,0,0,535.1,371.2Z" fill="#fff"/>
        <path id="Pfad_43" data-name="Pfad 43" d="M559.6,354.6V341.9l3.9-1v33.9h-2.6l-1.1-1.9h-.1a5.67,5.67,0,0,1-1.3.8c-.5.2-.9.5-1.4.7a8.06,8.06,0,0,1-3.2.7,11.852,11.852,0,0,1-3.2-.5,5.93,5.93,0,0,1-2.7-1.7,8.594,8.594,0,0,1-1.9-3.1,12.721,12.721,0,0,1-.7-4.6,13.085,13.085,0,0,1,.7-4.6,11.009,11.009,0,0,1,2-3.5,7.99,7.99,0,0,1,3.2-2.2,11.226,11.226,0,0,1,4.2-.7,16.232,16.232,0,0,1,2.1.1A17.665,17.665,0,0,0,559.6,354.6ZM549.5,365a11.327,11.327,0,0,0,.4,3.4,7.031,7.031,0,0,0,1.1,2.3,4.628,4.628,0,0,0,1.8,1.3,5.558,5.558,0,0,0,2.3.4,17.914,17.914,0,0,0,2.4-.2,10.516,10.516,0,0,0,2.1-.6V356.8a11.018,11.018,0,0,0-1.8-.2c-.6,0-1.2-.1-1.9-.1a21.113,21.113,0,0,0-2.6.2,3.02,3.02,0,0,0-1.8.8,9.682,9.682,0,0,0-.7.9,5.211,5.211,0,0,0-.6,1.5,11.951,11.951,0,0,0-.5,2.2A23.289,23.289,0,0,0,549.5,365Z" fill="#fff"/>
      </g>
    </g>
  </g>
</svg>
