<?xml version="1.0" encoding="utf-8"?>
<!-- Generator: Adobe Illustrator 22.0.0, SVG Export Plug-In . SVG Version: 6.00 Build 0)  -->
<svg version="1.1" id="Ebene_1" xmlns="http://www.w3.org/2000/svg" xmlns:xlink="http://www.w3.org/1999/xlink" x="0px" y="0px"
	 viewBox="0 0 841.9 320.8" style="enable-background:new 0 0 841.9 320.8;" xml:space="preserve">
<style type="text/css">
	.st0{fill:#FFFFFF;}
	.st1{fill:#020203;}
	.st2{fill:#171717;}
</style>
<rect id="Eage_Filling_Background" x="138.2" y="109.2" transform="matrix(0.352 -0.936 0.936 0.352 -16.7602 240.9429)" class="st0" width="54.8" height="46.7"/>
<rect id="Eagle_Filling_Background_2" x="190.8" y="115.8" class="st0" width="6" height="11.1"/>
<rect id="Eagle_Filling_Background_3" x="191.3" y="126.4" class="st0" width="2.5" height="2"/>
<rect x="242" y="189.5" transform="matrix(0.7394 -0.6733 0.6733 0.7394 -66.2261 214.9175)" class="st1" width="5" height="7"/>
<g>
	<g>
		<path class="st1" d="M187.8,136.5c1-0.5,2,0,3-1c0.5-0.5,1.5-0.5,2.5,0.5c2,3,4.5,4.5,6.5,7.5c1,1.5,2.5,1.5,3.5,3
			c3,3.5,6,6.5,8.5,9.5c1.5,1.5,3,3,4.5,4.5c2.5,2.5,5,4.5,7,7.5c2.5,3.5,6,6,9,9.5c2,2,4,4,6,6c7,5,11.6,12.6,18.1,18.6
			c5,4.5,9.5,8.5,16.1,10.6c-3,0-5.5-0.5-8-2c-0.5,0.5-0.5,1,0,1c4,4.5,7.5,8.5,12.6,12.1c3.5,2.5,7,4,11.6,3c2-0.5,1,1,1,2
			c0,0.5-3,2.5,0.5,2c0,1.5,2,1.5,2,2.5l0,0c-2,0.5-3.5,0-5.5-1c-1.5-1-3-1-4.5-1.5c-0.5,0-1.5-0.5-1.5,0.5c-0.5,0.5,0.5,1,0.5,1.5
			c0.5,1,2,1.5,2.5,2.5c-1,0.5-2-0.5-3-0.5c-2-1.5-4.5-2.5-6.5-4c-1.5-1-3-1-4,0.5c-1,1.5-1.5,3.5,0,5c1,1,1.5,2,2.5,2.5
			c-1.5-0.5-3-1.5-4-2c-3.5-2-7-3-10.6-5.5c-1.5-1-3-1-4,1c-1.5,3-2,6-0.5,9c0,0.5,1,1,0,1.5c-0.5,0.5-1,0-1.5,0
			c-5.5-2.5-10.6-6-14.6-11.1c-1.5-2-1.5-4-2-6c0-1-0.5-2-2-1.5c-0.5,0-0.5,0-1,0c-2,0.5-5-1.5-6.5-0.5c-1.5,1.5-3.5,2.5-5,4
			c-2.5,2-5,3-8,1.5c-1.5-1-3.5-0.5-5.5-1.5c-1-1-2.5-1.5-2.5-3c0-1.5-1-1.5-2.5-1.5c-5,1-9.5,0.5-13.1-3.5
			c-0.5-0.5-1.5-1.5-2.5-1.5c-3.5-0.5-6-3-8-5.5c-1-1-1.5-2.5-1.5-4c-0.5,2.5-3,2.5-5,3c-2,0.5-4.5,0.5-6-1.5c-1-1-2-1.5-3-3
			c-1-1.5-2.5-2-4-1.5c-4.5,1-8,0-10.6-4c-0.5-0.5-0.5-1-1.5-1c-2.5-0.5-5-2-7-4c-1-1-2-1.5-3.5-1.5c-3.5,0-6-1-7-4.5
			c-0.5-1-1.5-1.5-2.5-1.5c-2-0.5-3.5-1.5-4.5-3c-0.5-1-1.5-1.5-3-1.5c-3.5-0.5-4.5-1.5-5-5c0-1-1-1-1-1c-2.5-1-4.5-2-5.5-4.5
			c-0.5-1-1-1-2-1c-1.5,0-3-0.5-4.5-1.5c-1.5-1.5-1.5-2.5-0.5-4.5c-2.5-1.5-6-1.5-6-6c-2.5,0-3.5,2-4,3.5c-1,2-3,3.5-4,6
			c-0.5,1-1.5,0-2,0.5l0,0c0,2-0.5,4-2.5,5c-0.5,0.5-1,1.5-2,1c-0.5,0-1,0-1,0.5c-0.5,2-1.5,1.5-3,1.5c-1-0.5-2,1.5-3.5,1
			c-1.5-0.5-3.5-1.5-4.5-2.5c-1-1-0.5-2,0-3c1-1.5,1-2.5,1-4c0-2-1-2-3-2.5c-2.5-0.5-5,0-7.5-0.5c-1,0-2.5-0.5-1.5-2.5
			c0.5-1,0-2,0-3.5c1,1,1.5,1.5,2,2.5c0-1-0.5-2,0.5-3c0.5-0.5,1.5-0.5,1-1.5c-0.5-1-1.5-0.5-2,0c-0.5-1,3.5-2.5-0.5-3
			c1-1,2.5-1,3-2.5c-0.5-0.5-1,0-2-0.5c1.5-0.5,3-3,4.5-0.5c0-0.5,1-2-1-1.5c-1,0-2-0.5-3-1c4.5,0.5,6-3,8.5-5.5
			c-1.5,0-2.5,0.5-4-0.5c-1-1-1.5-1.5-0.5-2.5c1.5-2,3-4,5.5-5c1-0.5,2-0.5,1.5-2c-0.5-1,1-1.5,2.5-2c2.5-1,4.5-1.5,5.5-4.5
			c0.5-1.5,0-2-1.5-2.5c-2.5,0-5,0.5-7,1c-2.5,0.5-5,1-7.5,0.5c-2.5-0.5-4-1.5-5-4c-0.5-1-1.5-1.5-2.5-1.5c-1.5,0-3.5-0.5-4.5-1.5
			c-1.5-1.5-2-2.5,0-3.5c5-3,9.5-7,15.1-9c2-0.5,4-2,5.5-3c3-2,6.5-2,9.5-2.5c1-0.5,3,0,3-1c0-0.5-2-0.5-3-1c-2-0.5-4-0.5-6,0.5
			c-1.5,1-3.5,1.5-5.5,1.5c-3,0-6,0.5-8.5,2c-1,0.5-2,1-3.5,1c-2.5,0.5-5,1.5-7,2.5c-4.5,2-9,3.5-13.6,4.5c-2.5,0.5-4.5,0-6-2.5
			c-0.5-1-1-2-2.5-2c-2.5,0-3.5-1-3-3.5c0-1-0.5-1-1-1.5c-0.5,0-1.5-0.5-2-0.5c-2-0.5-2.5-2-1.5-4c0.5-1.5,0-1.5-1-2
			c-1,0-2-0.5-3.5-0.5c-2-0.5-2.5-1.5-1-3c0.5-0.5,1.5-1,2-1.5c1-1,0.5-1.5-0.5-2c-1.5-0.5-3.5-0.5-5.5-0.5c-0.5,0-1.5,0-1.5-1
			s0.5-1,1-1.5c0.5-0.5,1-0.5,1-1s-0.5-1-1-1c-0.5-0.5-1-0.5-1.5-0.5c-0.5,0-1.5,0-1.5-1c0-1,1-1,1.5-1.5c1-0.5,3-0.5,3-1.5
			c0-1.5-2-1.5-3-2s-2-0.5-3-1c-0.5,0-1-0.5-1-1c0-1,0.5-0.5,1-1c3.5-1,7.5-1,11.1-0.5c0.5,0,1.5,1,2,0c0.5-1-0.5-1.5-1.5-2
			c-3.5-2-7-3.5-10.6-5c-2.5-0.5-1.5-2-1.5-3.5c0-1.5,1-1.5,2-2c1,0,2.5,0,3.5-0.5c0.5,0,1.5,0,1.5-1c0-0.5-0.5-1-1-1.5
			c-1.5-1-2-1.5,0.5-2c1,0,1-1,1-2c0-1.5,0.5-2.5,2-2.5c1,0,1.5-0.5,1.5-1.5C16.5,49,18,49,19,49c4,1,7.5,3,11.1,3.5
			c0.5,0,1.5,0.5,2.5,0.5c0-3.5-1-6-4-7.5C21.5,41,16,35.4,10.4,29.4c-0.5-0.5-1.5-1.5-1.5-2.5c1,0,1,0.5,1.5,1
			C20,37.5,31,45,43.1,51c1.5,0.5,3.5,2,4,1c1-1,0-3-1-4.5s-2.5-2.5-4-3.5c-5.5-4.5-10.6-9.5-15.1-15.1c-1.5-1.5-2.5-4-3-6
			c0-0.5-0.5-1,0-1c0.5-0.5,0.5,0,1,0.5c1,1,2,2,2.5,3c7,10.1,15.6,18.1,26.1,24.6c1,0.5,1.5,1,2.5,1.5c0.5,0,1,0.5,1.5,0.5
			c0-3.5-1.5-6-3.5-8.5c-2.5-2.5-4.5-5-6.5-8c-0.5-0.5-0.5-1-1-1.5c-0.5-1-1-2.5,0.5-3c1.5-0.5,1.5,1,2,2c5,7.5,11.1,14.6,17.6,20.6
			c0.5,0.5,1.5,1.5,2.5,2c2-3.5,2-4.5-1-7.5c-3-3-4.5-7-6-10.6c-3.5-7-5-14.6-5.5-22.6c0-2,0.5-4,1-6c0.5-0.5,0.5-1.5,1.5-1.5
			c1,0,1,1,1.5,1.5c1.5,6,3.5,12.6,5,18.6C68.2,37,72.2,46,78.3,54c2,2.5,3.5,5,7,5c-4-6-4-13.1-5.5-19.6c-1.5-7-1-14.6,0-21.6
			c0.5-2.5,1.5-5,3-7c0.5-0.5,1-1,2-1c1,0.5,0.5,1,1,1.5c0.5,4.5,0.5,9,1,13.6c0.5,11.1,1.5,21.6,4.5,32.2c1,2.5,1.5,5,4,6.5
			c1.5,1,2.5,2,4,3.5c-0.5-2-1.5-3.5-2.5-5c-1-1.5-2-3,0.5-4.5c1-0.5,0.5-1,0.5-2c0-0.5,0.5-1.5,1-1.5c1,0,1,0.5,1,1.5
			c0.5,2,0.5,4,0.5,6c0,1.5,0,2.5,0,4c0,2.5,1,4.5,3,6c2.5,2,5.5,3.5,9,4.5c3,0.5,5.5,2,8.5,4c5,3.5,10.1,7.5,16.6,9
			c1,0,1.5,1,2,1.5c2,2.5,5,3.5,7,6c2,1.5,4.5,2.5,7,3.5c1.5,0.5,2.5,1.5,4,2c0.5,0.5,1,1,1,1.5c0,1.5-0.5,3,1,4.5c0,0-1,1-1.5,1.5
			c0,1-1.5,1.5-1,2.5c0.5,1,1.5,0.5,2.5,0.5c0.5,0,0.5,0,1,0c-1,2.5-3,3-5,3.5c-0.5,0-2.5-0.5-1,1c0,0.5-0.5,0.5-0.5,0.5
			c-2.5,1.5-5,2.5-8,1.5c1.5,2.5,1.5,3.5-1,4c-1,0.5-2,0.5-2,2c0,1.5-2,2-2.5,3c-1,1-2.5,1.5-2.5,3c0,0.5-1.5,0-0.5,1
			c0.5,0.5,1.5,2,2.5,1c1-1,1.5,0,2,0.5c0,0.5,0.5,1,1,1.5c0.5,0,1.5,0,1,1c0,0.5-0.5,1-1.5,1c-0.5,0-1.5-0.5-2,0
			c0.5,0.5-0.5,2,1.5,2c0,0.5,0,1,0,1.5c-1-1.5-1.5,0-2.5,0.5c1.5,0.5,2.5,0.5,4,0.5c-0.5-0.5-1-1-2-1c0.5-0.5,1-0.5,1.5-1
			c1-0.5,2-0.5,2,1c0,1.5,0,2.5,2,2c1,0,1.5,0,2,1c0.5,1-0.5,1.5-1,1.5c-1,0.5-2.5,1-3.5,0.5c-1,0-1.5,0-1.5,1c-1,2-1,2.5,1.5,2.5
			c1,0,1.5,0,2.5,0c-0.5,0.5-1.5,0-2,0.5c11.6,1,22.1-3,31.2-10.1C181.8,142,184.3,139,187.8,136.5C187.3,137,187.3,137,187.8,136.5
			z M64.7,160.6L64.7,160.6c-1,0.5-1.5,1-2.5,2c-0.5,0.5-1,0.5-0.5,1.5c0.5,1,1,0,1.5,0c0.5,0,1-0.5,2-0.5c1.5,0,1.5-1,0.5-1.5
			c1,0.5,2,0,2.5,0c1.5,0,1.5-0.5,0.5-1.5c-0.5-0.5-0.5-0.5-1-1c-0.5-0.5-1-1-1.5,0.5c0,0.5-0.5,0.5-1,0.5l0,0
			C65.7,159.6,65.2,160.1,64.7,160.6z M73.8,162.6c-1,0.5-2.5,0-3.5,1c-0.5,0-0.5,0.5-0.5,1c0,0.5,0.5,0.5,0.5,0.5
			C71.2,164.6,73.2,164.6,73.8,162.6c0.5-0.5,1-0.5,1.5-0.5c0,1,0,2,0,2.5c1.5,1,2.5,2.5,4.5,2.5c3-0.5,6.5-0.5,9.5-1
			c1,0,1.5-0.5,1.5-1c-0.5-1.5,0.5-2.5,1.5-3.5c0.5-1,0-2-1-2c-2,0.5-4,0-5.5,1c-2,1-4,1-6,1.5c-1.5,0.5-3.5-0.5-5,0.5
			c-1-1-1-2-1-3.5c0-0.5-0.5-0.5-0.5-0.5c-0.5,0-0.5,0.5-0.5,1C73.2,160.6,72.7,161.6,73.8,162.6z M85.3,149c-1-1-3,0-3-2
			c0-1-1.5-0.5-1.5,0c0,0.5,0,1-0.5,0.5c-1.5-1-2,0.5-2.5,1.5c-1,2-2.5,3.5-4,5c-0.5,0.5,0,1.5,0,2c0.5,0.5,0.5,0,1,0
			c2-1,3-0.5,3.5,1.5C81.3,155,82.3,151,85.3,149z M106.4,76.1c0.5,2,2,3.5,4.5,4C108.9,78.7,107.4,77.2,106.4,76.1z M245.1,190.7
			c-0.5,0-0.5,1-1,1c-1,0.5,0,1,0,1.5c0,0.5,0.5,1,1,0.5C245.6,192.7,245.1,191.7,245.1,190.7z"/>
		<path class="st1" d="M187.8,136.5C187.3,137,187.3,137,187.8,136.5c-2,0-3.5,1.5-5,2.5c-2,1-3.5,1.5-5.5,2c-0.5,0.5-1.5,0.5-2.5,0
			c-0.5-0.5-0.5-1,0-1c0.5-1,1-2,2-1.5c2.5,1,4-0.5,5.5-1.5c0.5-0.5,2.5-1,0.5-2c-0.5-0.5,0-0.5,0.5-1c1-1,2.5-1.5,4-2.5
			c0.5,0,1-0.5,1-1c0-0.5-0.5-0.5-1-0.5c-1,0-2.5,0.5-2-0.5c0-1.5,1.5-1,2.5-0.5c2.5,0,5,0,6.5-2c0.5-1,2-1,3-2
			c-0.5-0.5-1-0.5-1.5-0.5c-1-0.5-3-0.5-0.5-2c-0.5-2,1-1.5,2-2c1-1,0-1.5-0.5-2.5c2-0.5,4-2,6.5-1.5c-0.5,1-1.5,0.5-2,1
			c2,1.5,6.5,0.5,10.1-1.5c0.5-0.5,1-1,1.5-1c1,0,0.5-1,0-1.5c-1.5-1-3-2.5-4-4c-2-1.5,0-3,0-4.5c0-1,2-0.5,3-0.5
			c1.5,0.5,3,0.5,4.5,1c2,0,3.5,1.5,4.5,3c0.5,0.5,1,2-1,2c-0.5,0-1,0.5-2,0.5c1.5,1,3.5,0,5,0.5c-1,3-1,3-4.5,4c-3,1-5,3.5-7.5,4.5
			c-4,2-7.5,4-11.6,6c-3,1.5-6.5,3.5-8,7C190.3,134.9,188.8,135.9,187.8,136.5z"/>
		<path class="st1" d="M292.9,234.4c2,0.5,0-2,1-1.5c1,0,1.5,1,2.5,1c4-0.5,7.5,1.5,11.6,0c3-1,6-2,9-3c2.5-1,5-1.5,7.5-2.5
			c2.5-1.5,5.5-2,8-3c0.5-0.5,1.5-1,2.5,0c-1,1-2,2.5-3,3c-3,2-5,5-8.5,7c-3,1.5-5,4-8.5,4.5c-2.5,0.5-5,1-7-1c-1-1-2-1-3.5-0.5
			c-1.5,0-3.5,0-5,0c-2,0-4,0-5-2C293.9,234.4,293.4,234.4,292.9,234.4C292.9,233.9,292.9,234.4,292.9,234.4z"/>
		<path class="st1" d="M295.9,242c6-0.5,11.6,1,16.6,3c0.5,0,1,0.5,1,1c0,0.5-0.5,0.5-1,0.5c-3-0.5-6.5,0-9.5-2c-1.5-1-3-1-4.5-1
			C296.9,243.5,296.4,243,295.9,242z"/>
		<path class="st1" d="M66.2,159.6c1.5,0.5,0.5,1,0,1.5l0,0C65.7,160.6,66.2,160.1,66.2,159.6L66.2,159.6z"/>
		<path class="st1" d="M65.7,161.6c-0.5-0.5-1,0-1-1l0,0c0.5,0,0.5,0,1,0l0,0C65.7,161.1,65.7,161.1,65.7,161.6z"/>
	</g>
</g>
<path id="Head_Top" class="st1" d="M206.4,100.8c-6.5-5-13.6-2.5-44.2-2.5c0,0-17.1,1-17.1,1.5c0,0,7-1,12.6,1.5c0.5,0,1.5,1,3,2
	c2,2,4,5,3.5,6c-1,1-7-1-7-2.5c0-1.5,8-3,12.1,0.5c1.5,1,2,2.5,3,2.5c2.5,0,2.5-5,6-5.5c1,0,2,0,4.5,0.5c2.5,0.5,2.5,1,4.5,1
	c2.5,0.5,5,0,6,0c2-0.5,1.5-0.5,3.5-1c2-0.5,3-0.5,4.5,0c0.5,0,1.5,1,3.5,2c2.5,1.5,2.5,2,2.5,2.5c0.5,1.5-0.5,2.5,0,3
	c1,1,4,0.5,4.5-1C213.5,108.3,209.4,103.3,206.4,100.8z"/>
<rect x="187.1" y="131.3" transform="matrix(0.9785 -0.206 0.206 0.9785 -23.5595 41.8926)" class="st1" width="4.5" height="5.5"/>
<rect x="146.1" y="99.3" class="st1" width="10.6" height="4"/>
<path class="st1" d="M196.4,117.9c-1.5-1.5-2-3-4.5-4.5c-2-1-5-1-6,0.5c-1,1,0,2.5-1,3c-1,0.5-2.5-1-3-2.5c0-1.5,2-2.5,2-3
	c-0.5-0.5-2.5,0-3.5,0.5s-2.5,1-3.5,2c-1,1-0.5,2-1,2c-0.5,0-2-2-1.5-3.5c0.5-1,1.5-1,1.5-1.5c0,0-2,0.5-4,2s-2.5,3-3,3s0.5-2-1-4
	c-0.5-1-2-2-2-1.5c-0.5,0,0,1.5-0.5,1.5c-0.5,0-1.5-2-2.5-2c-0.5,0-1,1-1,1.5c0,1,2,1,2,1.5c0,0.5-2.5,0-2.5,0.5s2,1.5,2,2
	s-3,0.5-5-0.5c-4.5-2.5-6.5-11.1-3.5-14.1c0.5-0.5,2-1.5,9-1c9,0.5,13.6,1,19.6,3c3.5,1,5,2,7.5,2c3-0.5,4-2.5,8-2.5
	c2.5,0,4.5,0.5,5.5,0.5c1.5,0.5,4,1.5,6.5,4c0.5,0.5,4,5,3,8.5C211.9,120.4,200.9,121.9,196.4,117.9z"/>
<g id="Eye">
	<path class="st0" d="M200.4,103.3c-1,0-1,1.5-1.5,2c-1,2.5,5,2,6,1l0,0c0.5-1-2-2-2-2.5C202.9,103.8,201.9,103.3,200.4,103.3
		C200.9,103.3,200.4,103.3,200.4,103.3z"/>
	<circle class="st2" cx="201.9" cy="105.3" r="1.5"/>
	<path class="st0" d="M202.1,105.7c0.1-0.3,0.2-0.5,0.2-0.5S202.2,105.5,202.1,105.7c-0.1,0.3-0.2,0.5-0.2,0.5S202,106,202.1,105.7z
		"/>
</g>
<rect x="113.4" y="160" transform="matrix(0.7071 -0.7071 0.7071 0.7071 -83.9125 136.653)" class="st1" width="19.2" height="19.2"/>
<rect x="113.5" y="207.8" class="st1" width="20.1" height="100.5"/>
<path class="st1" d="M183.8,257.6v50.8h-13.6v-93l15.1,9l100.5,49.8l0,0c0-10.6-0.5-20.1-0.5-28.6c0-3.5,0-7.5,0-11.6
	c0-4,0-7.5,0-11.1s0-6.5,0-9c0-2.5,0-4.5,0-6v-49.8h13.6v151.3h-9l-105.5-54.8v43.2"/>
<path class="st1" d="M377.8,310.3c-15.6,0-28.1-4.5-36.2-13.6c-8-9-12.6-22.1-12.6-38.7c0-8,1-15.6,3-22.1s5-12.1,9-16.6
	c4-4.5,9-8,15.1-10.6c6-2.5,13.1-3.5,21.1-3.5c8,0,15.1,1,21.1,3.5c6,2.5,11.1,5.5,15.1,10.1s7,10.1,9,16.6s3,14.1,3,22.1
	s-1,15.6-3,22.1s-5,12.1-9,16.6s-9,8-15.1,10.6C392.4,309.3,385.8,310.3,377.8,310.3z"/>
<path class="st1" d="M350.1,258.1c0,7.5,0.5,13.6,1.5,19.1c1,5.5,2.5,9.5,5,12.6s5,6,8.5,7.5c3.5,1.5,7.5,2.5,12.6,2.5
	c4,0,7.5-0.5,10.6-1c3-0.5,6-2,9-4.5c3.5-2.5,5.5-7,7-13.6c1.5-6.5,2-13.6,2-22.1c0-14.6-2-24.6-6.5-31.7
	c-4.5-6.5-11.6-10.1-20.6-10.1c-4,0-7.5,0.5-10.6,1c-3,0.5-6,2-8.5,4c-1.5,1-3,3-4,5.5c-1,2.5-2,5-2.5,8.5c-0.5,3.5-1,6.5-1.5,10.6
	C351.6,250.5,350.1,254,350.1,258.1z"/>
<path class="st1" d="M521,308.3v-69.9c0-2.5,0-4.5-0.5-7s-1-4.5-2-6c-1-2-2.5-3.5-5-4.5s-5-2-8-2c-2,0-4.5,0.5-7,1s-5,1.5-7.5,2
	c-2.5,0.5-5,2-7.5,3c-2.5,1-4.5,2.5-6.5,3.5v79.9h-20.1V207.8h16.6l3,11.6c2-1.5,4.5-2.5,7.5-4.5c3-2,6-3,9-4.5
	c3-1.5,6.5-2.5,10.1-3.5s7-1.5,10.6-1.5c6,0,11.1,1.5,15.1,4c4.5,2.5,7.5,6.5,9.5,11.6l2.5-1.5c2-1.5,4.5-2.5,7.5-4.5s6-3,9-4.5
	c3-1.5,6.5-2.5,10.1-3.5c3.5-1,7-1.5,10.6-1.5c4,0,7.5,0.5,11.1,2c3.5,1.5,6.5,3,8.5,5.5c2,2.5,4.5,5.5,5.5,9s2,8,2,13.1v73.4h-20.1
	v-69.9c0-2.5,0-4.5-0.5-7c-0.5-2.5-1-4.5-2-6c-1-2-2.5-3.5-5-4.5c-2.5-1-5-2-8-2c-2,0-4.5,0.5-7.5,1c-2.5,0.5-5,1.5-8,2.5
	c-2.5,1-5,2-7.5,3s-4.5,2.5-6.5,3.5c0.5,2,0.5,4,0.5,6.5v73.4H521V308.3z"/>
<path class="st1" d="M718.5,298.3c2.5,0,6-0.5,10.6-2v6.5c-3,1.5-6.5,3.5-10.6,5c-4,1.5-7.5,2.5-11.6,2.5c-2.5,0-4.5-0.5-6-1
	c-1.5-0.5-3-1.5-4-3s-2-2.5-2.5-4c-0.5-1.5-1.5-3-2-4.5c-2.5,1.5-5,3.5-7.5,5s-5,3-7.5,4c-2.5,1-5.5,2-8.5,3c-3,1-6,1-10.1,1
	c-8,0-14.6-2.5-19.6-7c-5-4.5-7-11.6-7-20.6c0-5,0.5-9,2-13.1c1.5-4,3.5-6.5,7-9c3.5-2.5,7-4.5,12.1-5.5c5-1,11.1-2,18.6-2l18.1-0.5
	v-18.6c0-5.5-1-9.5-3.5-12.1c-2.5-2.5-6-4-11.6-4c-4,0-8.5,0.5-14.1,2c-5.5,1.5-11.1,3-16.1,5.5l-3.5-9.5c3-1.5,6.5-2.5,10.1-4
	c3.5-1.5,7-2.5,10.6-3.5c3.5-1,7.5-2,11.1-2.5c3.5-0.5,7.5-1,11.1-1c4,0,7.5,0.5,11.1,1.5c3.5,1,6,2.5,8,4.5c2,2,4,5,5,8.5
	c1,3.5,1.5,7.5,1.5,13.1v48.2C710.5,292.2,713,298.3,718.5,298.3z"/>
<path class="st1" d="M690.9,290.7c0-0.5,0-3.5-0.5-8.5c-0.5-5-0.5-12.6-0.5-22.1c-10.6,0-18.6,0.5-24.1,2c-5.5,1.5-9,2.5-10.1,4
	s-2,3-2.5,5.5c-0.5,2.5-1,5-1,8c0,5.5,1,10.1,3,13.1c2,3,5,4.5,9.5,4.5c5,0,9-0.5,13.1-1.5C681.8,294.7,686.8,293.2,690.9,290.7z"/>
<path class="st1" d="M814,207.3c0-1.5,0-3,0-4.5c0-1,0-2.5,0-3.5s0-2.5,0-3v-52.8l19.6-5v170.4h-13.1l-5.5-9.5h-0.5
	c-2,1.5-4,3-6.5,4c-2.5,1-4.5,2.5-7,3.5c-2.5,1-5,2-7.5,2.5c-2.5,0.5-5.5,1-8.5,1c-5.5,0-10.6-1-16.1-2.5c-5.5-1.5-9.5-4.5-13.6-8.5
	c-4-4-7-9-9.5-15.6s-3.5-14.1-3.5-23.1c0-8.5,1-16.6,3.5-23.1s5.5-12.6,10.1-17.6c4.5-5,9.5-8.5,16.1-11.1
	c6.5-2.5,13.1-3.5,21.1-3.5c3,0,6.5,0,10.6,0.5C807.4,206.3,810.5,207.3,814,207.3z"/>
<path class="st1" d="M763.2,259.6c0,6.5,0.5,12.6,2,17.1s3,8.5,5.5,11.6c2.5,3,5.5,5,9,6.5c3.5,1.5,7,2,11.6,2s8-0.5,12.1-1
	s7.5-2,10.6-3v-74.4c-3-0.5-6-1-9-1s-6-0.5-9.5-0.5c-4.5,0-9,0.5-13.1,1c-4,0.5-7,2-9,4c-1,1-2,2.5-3.5,4.5c-1.5,2-2,4.5-3,7.5
	c-1,3-2,7-2.5,11.1C763.7,249,763.2,254,763.2,259.6z"/>
</svg>
